<?xml version="1.0" standalone="no"?>
<!DOCTYPE svg PUBLIC "-//W3C//DTD SVG 20010904//EN"
 "http://www.w3.org/TR/2001/REC-SVG-20010904/DTD/svg10.dtd">
<svg version="1.0" xmlns="http://www.w3.org/2000/svg"
 width="395.000000pt" height="395.000000pt" viewBox="0 0 395.000000 395.000000"
 preserveAspectRatio="xMidYMid meet">
<metadata>
Created by potrace 1.14, written by Peter Selinger 2001-2017
</metadata>
<g transform="translate(0.000000,395.000000) scale(0.100000,-0.100000)"
fill="#000000" stroke="none">
<path d="M1890 3455 l0 -144 -232 -238 c-302 -309 -277 -277 -248 -308 13 -14
27 -25 32 -25 5 0 111 104 236 232 l229 232 230 -235 231 -234 31 29 30 29
-255 261 -254 261 0 142 c0 120 -2 143 -15 143 -13 0 -15 -23 -15 -145z"/>
<path d="M1743 2981 l-153 -158 0 -336 0 -336 -365 -373 -365 -373 30 -30 30
-30 93 95 c52 52 273 278 492 503 219 224 401 406 404 405 4 -2 110 -109 236
-238 126 -129 346 -354 488 -499 l259 -264 30 30 30 30 -366 374 -366 374 0
335 -1 335 -152 158 c-84 87 -156 157 -162 156 -5 0 -79 -72 -162 -158z m147
-233 c0 -29 -7 -49 -21 -65 -13 -13 -25 -44 -30 -74 -5 -28 -16 -60 -25 -70
-17 -18 -14 -19 90 -19 l107 0 -15 22 c-9 12 -19 45 -22 72 -5 34 -15 57 -31
72 -19 18 -24 31 -21 61 l3 38 113 3 112 3 0 -156 0 -155 -245 0 -245 0 0 148
c0 82 3 152 7 155 3 4 55 7 115 7 l108 0 0 -42z"/>
<path d="M3070 1515 l0 -1045 -1180 0 -1180 0 0 -45 0 -45 1195 0 1195 0 0
939 0 940 26 20 c38 30 101 28 145 -4 79 -58 131 -66 186 -30 22 15 23 21 23
135 l0 121 -30 -16 c-50 -26 -100 -19 -156 20 -64 46 -103 53 -154 27 l-40
-19 0 23 c0 15 -6 24 -15 24 -13 0 -15 -123 -15 -1045z"/>
<path d="M1463 1847 l-432 -442 -1 -382 0 -383 345 0 345 0 0 343 c0 335 1
343 23 382 25 45 109 95 159 95 42 0 116 -38 143 -75 38 -49 45 -115 45 -441
l0 -304 345 0 345 0 0 383 -1 382 -430 440 c-236 242 -435 441 -442 442 -7 1
-206 -197 -444 -440z m471 83 c8 0 25 -12 40 -26 30 -31 36 -95 11 -131 -36
-51 -135 -50 -169 2 -45 69 19 178 92 159 8 -2 19 -4 26 -4z m-434 -750 l0
-130 -125 0 -125 0 0 130 0 130 125 0 125 0 0 -130z m1050 0 l0 -130 -125 0
-125 0 0 130 0 130 125 0 125 0 0 -130z m-1050 -225 l0 -45 -125 0 -125 0 0
45 0 45 125 0 125 0 0 -45z m1050 0 l0 -45 -125 0 -125 0 0 45 0 45 125 0 125
0 0 -45z"/>
<path d="M890 555 l0 -45 1015 0 1015 0 0 45 0 45 -1015 0 -1015 0 0 -45z"/>
</g>
</svg>
